<svg xmlns="http://www.w3.org/2000/svg" data-name="Layer 1" viewBox="0 0 512 640" x="0px" y="0px"><path d="M319.518,125.456a6.388,6.388,0,0,0-.252,8.763l9.085-9.044A6.491,6.491,0,0,0,319.518,125.456Z"/><polygon points="388.906 168.371 344.021 123.685 338.723 128.959 383.608 173.645 388.906 168.371"/><path d="M387.159,192.733a6.391,6.391,0,0,0,.252-8.763l-9.084,9.044A6.49,6.49,0,0,0,387.159,192.733Z"/><polygon points="401.29 156.042 356.404 111.356 351.107 116.63 395.993 161.316 401.29 156.042"/><polygon points="413.674 143.714 368.788 99.028 363.491 104.301 408.377 148.987 413.674 143.714"/><polygon points="376.522 180.701 331.637 136.014 326.34 141.287 371.226 185.974 376.522 180.701"/><path d="M273.73,146.1l-2.586,15.612a95.309,95.309,0,0,1-26.489,52.157l-13.431,13.373a12.333,12.333,0,0,0,0,17.5l36.045,35.885a12.532,12.532,0,0,0,17.647,0l11.14-11.09a110.255,110.255,0,0,1,62.028-30.294l8.076-1.129L297.9,170.171Zm7.93,112.013a5,5,0,0,1-7.07.016l-20.7-20.607a5,5,0,0,1,7.054-7.087l20.7,20.607A5,5,0,0,1,281.66,258.116Z"/><polygon points="375.875 91.972 420.761 136.659 426.058 131.385 381.172 86.699 375.875 91.972"/><polygon points="413.026 54.986 457.912 99.672 463.209 94.399 418.323 49.712 413.026 54.986"/><path d="M403.524,167.928l-9.028,8.988a16.376,16.376,0,0,1-.282,22.9,16.514,16.514,0,0,1-23.254,0l-58.5-58.237a16.4,16.4,0,0,1,0-23.214,16.507,16.507,0,0,1,22.976-.251l9.026-8.986-3.7-3.684a23.356,23.356,0,0,0-32.892,0l-30.4,30.267,99.352,98.911,30.435-30.3a23.032,23.032,0,0,0,0-32.682Z"/><polygon points="388.259 79.644 433.145 124.33 438.441 119.056 393.556 74.37 388.259 79.644"/><polygon points="437.794 30.329 482.68 75.015 487.977 69.741 443.091 25.055 437.794 30.329"/><polygon points="425.41 42.657 470.296 87.344 475.593 82.07 430.707 37.384 425.41 42.657"/><polygon points="400.643 67.315 445.528 112.001 450.825 106.727 405.94 62.041 400.643 67.315"/><polygon points="160.893 395.37 116.007 350.684 110.71 355.958 155.596 400.644 160.893 395.37"/><polygon points="103.623 363.013 98.326 368.286 143.212 412.972 148.509 407.699 103.623 363.013"/><polygon points="180.608 304.395 207.39 331.057 214.414 324.064 187.633 297.401 180.608 304.395"/><polygon points="85.942 380.615 130.828 425.301 136.125 420.027 91.239 375.341 85.942 380.615"/><path d="M188.113,257.884a8.974,8.974,0,0,0-12.639,0l-42.147,41.958L86.405,360.72l2.674,2.662,23.4-23.3a5,5,0,0,1,7.055,0l51.973,51.742a5,5,0,0,1,0,7.087l-23.368,23.264,2.669,2.659L211.993,378.1l42.147-41.959a8.822,8.822,0,0,0,0-12.52Zm36.915,69.723-14.111,14.048a5,5,0,0,1-7.055,0l-33.868-33.717a5,5,0,0,1,0-7.087L184.105,286.8a5,5,0,0,1,7.055,0l33.868,33.717a5,5,0,0,1,0,7.087Z"/><polygon points="24.023 442.259 68.909 486.945 74.206 481.671 29.32 436.985 24.023 442.259"/><polygon points="61.175 405.273 106.06 449.959 111.357 444.685 66.472 399.999 61.175 405.273"/><polygon points="73.559 392.944 118.444 437.63 123.741 432.356 78.855 387.67 73.559 392.944"/><polygon points="48.791 417.601 93.677 462.288 98.974 457.014 54.088 412.328 48.791 417.601"/><polygon points="36.407 429.93 81.293 474.616 86.59 469.343 41.704 424.656 36.407 429.93"/><text x="0" y="527" fill="#000000" font-size="5px" font-weight="bold" font-family="'Helvetica Neue', Helvetica, Arial-Unicode, Arial, Sans-serif">Created by Icongeek26</text><text x="0" y="532" fill="#000000" font-size="5px" font-weight="bold" font-family="'Helvetica Neue', Helvetica, Arial-Unicode, Arial, Sans-serif">from the Noun Project</text></svg>